Coordinates
version=1
nRows=8
nColumns=63
inDegrees=yes

Units are S.I. units (second, meters, Newtons, ...)
If the header above contains a line with 'inDegrees', this indicates whether rotational values are in degrees (yes) or radians (no).

endheader
time	pelvis_tilt	pelvis_list	pelvis_rotation	pelvis_tx	pelvis_ty	pelvis_tz	hip_flexion_r	hip_adduction_r	hip_rotation_r	knee_angle_r	knee_angle_r_beta	ankle_angle_r	subtalar_angle_r	mtp_angle_r	hip_flexion_l	hip_adduction_l	hip_rotation_l	knee_angle_l	knee_angle_l_beta	ankle_angle_l	subtalar_angle_l	mtp_angle_l	L5_S1_Flex_Ext	L5_S1_Lat_Bending	L5_S1_axial_rotation	L4_L5_Flex_Ext	L4_L5_Lat_Bending	L4_L5_axial_rotation	L3_L4_Flex_Ext	L3_L4_Lat_Bending	L3_L4_axial_rotation	L2_L3_Flex_Ext	L2_L3_Lat_Bending	L2_L3_axial_rotation	L1_L2_Flex_Ext	L1_L2_Lat_Bending	L1_L2_axial_rotation	L1_T12_Flex_Ext	L1_T12_Lat_Bending	L1_T12_axial_rotation	Abs_r3	Abs_r2	Abs_r1	Abs_t1	Abs_t2	neck_flexion	neck_bending	neck_rotation	arm_flex_r	arm_add_r	arm_rot_r	elbow_flex_r	pro_sup_r	wrist_flex_r	wrist_dev_r	arm_flex_l	arm_add_l	arm_rot_l	elbow_flex_l	pro_sup_l	wrist_flex_l	wrist_dev_l
      5.76470588	      3.08105970	      0.22943297	     74.27231038	     -0.00728846	      0.95840419	      0.54614645	     -2.49886569	      1.96928160	      0.15533224	     10.04131891	      0.17525408	     25.86724868	     16.43471326	      0.00000000	     -6.55894139	     -2.00170021	     -6.31214938	      1.60780590	      0.02806151	     22.27103117	    -10.27867454	      0.00000000	     -0.51756617	      0.71060568	      6.47047209	     -0.96117214	      0.94510556	      6.87487660	     -0.85030946	      1.72776666	      6.87487660	     -0.59152638	      1.72776666	      5.66166308	     -0.48061195	      1.44906711	      5.25725858	     -0.29573731	      1.10072821	      4.85285407	     -3.69692340	      8.03851362	     35.98682465	      0.00000000	      0.00000000	     22.87081087	     14.11626831	    -34.24263000	   -105.29450888	    -72.82706638	   -199.74098284	    142.38108915	     18.64602685	    -17.39791883	     18.43789196	     32.29924276	     12.33723563	    187.47057859	      0.12278400	      1.45512444	    -69.12897410	    -23.32928092
      5.78431373	      2.84960513	     -0.22800458	     73.77345766	     -0.00668365	      0.95702843	      0.54609085	     -1.99218687	      1.81457070	      0.58331318	     10.10077746	      0.17629182	     25.71971851	     16.36363466	      0.00000000	     -6.10697892	     -1.84038572	     -6.36545661	      1.53627051	      0.02681298	     22.24117382	    -10.98169972	      0.00000000	     -0.51674297	      0.70691218	      5.86503636	     -0.95964338	      0.94019320	      6.23160114	     -0.84895703	      1.71878627	      6.23160114	     -0.59058555	      1.71878627	      5.13190682	     -0.47984753	      1.44153532	      4.76534204	     -0.29526694	      1.09500697	      4.39877727	     -3.69104339	      7.99673195	     32.61957274	      0.00000000	      0.00000000	     22.21674759	     16.66623384	    -29.70158756	   -125.66798038	    -78.21669279	   -218.87521715	    141.51084847	     15.85045884	    -18.75726402	     19.64333658	     30.02572349	     10.19631724	    185.67026595	      0.13529901	      1.51862191	    -68.57203871	    -22.93875321
      5.80392157	      2.47209379	     -0.60663971	     73.39240003	     -0.00572267	      0.95578116	      0.54611886	     -1.56032736	      1.53211622	      0.85372066	     10.13074304	      0.17681482	     25.52603282	     16.16023240	      0.00000000	     -5.66640208	     -1.57028641	     -6.68038548	      1.50670845	      0.02629702	     22.30488292	    -10.95275421	      0.00000000	     -0.50927034	      0.67457231	      5.38050775	     -0.94576594	      0.89718118	      5.71678949	     -0.83668024	      1.64015512	      5.71678949	     -0.58204507	      1.64015512	      4.70794428	     -0.47290843	      1.37558786	      4.37166255	     -0.29099707	      1.04491251	      4.03538081	     -3.63766708	      7.63089692	     29.92476997	      0.00000000	      0.00000000	     21.85500502	     18.58115415	    -26.05703479	   -151.62777686	    -80.76782530	   -244.40371446	    141.00753559	     14.75305963	    -19.37386283	     21.04612912	     27.91111228	      8.55459854	    182.53739730	      0.15093717	      1.44469109	    -66.80540349	    -22.23737137
      5.82352941	      2.26832228	     -0.87670913	     73.12429371	     -0.00517456	      0.95506133	      0.54620099	     -1.32866209	      1.38758048	      1.07344858	     10.06625049	      0.17568921	     25.17043286	     15.90049974	      0.00000000	     -5.36167962	     -1.44618813	     -7.02674169	      1.51391369	      0.02642278	     22.30397794	    -10.78367758	      0.00000000	     -0.50476008	      0.66212565	      5.33873911	     -0.93738994	      0.88062712	      5.67241030	     -0.82927033	      1.60989231	      5.67241030	     -0.57689029	      1.60989231	      4.67139672	     -0.46872021	      1.35020663	      4.33772552	     -0.28841991	      1.02563264	      4.00405433	     -3.60545074	      7.49009781	     29.69246529	      0.00000000	      0.00000000	     22.43736784	     18.84772076	    -25.26943106	   -152.02316738	    -79.98821463	   -245.82654934	    141.01479084	     13.87844988	    -18.68201299	     21.65178416	     26.56102414	      8.16285762	    180.08484382	      0.16679157	      1.24463680	    -59.24147552	    -22.28165076
      5.84313725	      1.88332966	     -1.21250453	     72.88015909	     -0.00427357	      0.95416401	      0.54601726	     -1.01896902	      1.09583000	      1.12995542	      9.91822192	      0.17310563	     24.92987170	     15.87242630	      0.00000000	     -4.97973467	     -1.15681728	     -7.33475973	      1.47962963	      0.02582441	     22.16590604	    -10.89237415	      0.00000000	     -0.48661698	      0.62143107	      5.22944697	     -0.90369638	      0.82650333	      5.55628740	     -0.79946303	      1.51094751	      5.55628740	     -0.55615454	      1.51094751	      4.57576610	     -0.45187252	      1.26722224	      4.24892566	     -0.27805294	      0.96259673	      3.92208523	     -3.47585639	      7.02975258	     29.08461521	      0.00000000	      0.00000000	     22.85359811	     18.53191111	    -24.54820736	   -151.34950718	    -79.48573582	   -246.45270536	    141.49392056	     13.90251967	    -18.40007438	     21.71052438	     25.28461812	      7.22354459	    179.78360934	      0.17758013	      1.24102613	    -58.08901853	    -21.78900773
      5.86274510	      1.70069867	     -1.39750540	     72.81063927	     -0.00396337	      0.95388251	      0.54585832	     -0.82838193	      0.95562175	      1.11473503	      9.91527909	      0.17305427	     24.72557346	     15.75933415	      0.00000000	     -4.73858748	     -1.03926844	     -8.04072353	      1.57955057	      0.02756836	     22.31219410	    -10.23347338	      0.00000000	     -0.47890638	      0.61387188	      5.36136737	     -0.88937703	      0.81644960	      5.69645283	     -0.78679529	      1.49256808	      5.69645283	     -0.54734210	      1.49256808	      4.69119645	     -0.44471246	      1.25180753	      4.35611099	     -0.27364710	      0.95088754	      4.02102553	     -3.42078037	      6.94424145	     29.81831690	      0.00000000	      0.00000000	     23.50054704	     18.17308860	    -24.67772008	   -138.48669615	    -77.37395211	   -235.71552301	    141.79487035	     14.09714070	    -16.88647989	     21.95079062	     24.74831317	      6.83693058	    181.07100651	      0.18015494	      1.36792717	    -53.61649463	    -22.55751689
      5.88235294	      1.32956474	     -1.64669762	     72.73415709	     -0.00298939	      0.95339785	      0.54530944	     -0.61617428	      0.68318678	      1.08671897	      9.72344466	      0.16970612	     24.67900665	     15.84023831	      0.00000000	     -4.43702216	     -0.76545986	     -8.44165546	      1.61113758	      0.02811966	     22.24004447	    -10.15775555	      0.00000000	     -0.46241078	      0.57855182	      5.21166178	     -0.85874306	      0.76947392	      5.53739064	     -0.75969467	      1.40669089	      5.53739064	     -0.52848928	      1.40669089	      4.56020405	     -0.42939465	      1.17978287	      4.23447519	     -0.26422152	      0.89617676	      3.90874633	     -3.30295397	      6.54469386	     28.98569930	      0.00000000	      0.00000000	     23.67885544	     18.55812138	    -23.26865019	   -137.43911471	    -77.23982656	   -236.18758725	    142.20863369	     13.82776453	    -16.25325293	     22.05356525	     23.93447943	      5.44255915	    184.68270351	      0.17635693	      1.72090885	    -58.32926512	    -22.23545348
      5.90196078	      0.93205772	     -1.87768606	     72.74545277	     -0.00207069	      0.95318313	      0.54487207	     -0.36558551	      0.39415279	      1.05068577	      9.57950616	      0.16719392	     24.68211418	     15.89214772	      0.00000000	     -4.12529865	     -0.46905423	     -8.80578283	      1.65415425	      0.02887044	     22.10996809	    -10.03490720	      0.00000000	     -0.44788952	      0.54566530	      5.02038021	     -0.83177562	      0.72573484	      5.33415398	     -0.73583768	      1.32673060	      5.33415398	     -0.51189293	      1.32673060	      4.39283269	     -0.41591020	      1.11272067	      4.07905892	     -0.25592407	      0.84523554	      3.76528516	     -3.19923002	      6.17267495	     27.92184863	      0.00000000	      0.00000000	     23.78059646	     19.38483803	    -21.35256430	   -137.49275586	    -77.73347607	   -237.22216597	    142.69365955	     13.92514530	    -15.82403281	     21.80208514	     23.23253475	      4.00731886	    187.08465938	      0.17391578	      2.30981642	    -61.31207764	    -22.32553993
